<svg width="50" height="50" viewBox="0 0 50 50" fill="none" xmlns="http://www.w3.org/2000/svg">
<g clip-path="url(#clip0_7_8)">
<path d="M49.9736 25.4677C49.9736 23.4193 49.8035 21.9244 49.4354 20.3742H25.498V29.62H39.5487C39.2656 31.9177 37.7358 35.3781 34.3364 37.7032L34.2887 38.0128L41.8573 43.7424L42.3817 43.7935C47.1974 39.4473 49.9736 33.0527 49.9736 25.4677Z" fill="#4285F4"/>
<path d="M25.4979 49.8283C32.3816 49.8283 38.1605 47.6136 42.3815 43.7935L34.3362 37.7033C32.1833 39.1704 29.2938 40.1947 25.4979 40.1947C18.7558 40.1947 13.0336 35.8487 10.9937 29.8416L10.6947 29.8664L2.82484 35.8181L2.72192 36.0977C6.91446 44.2363 15.5263 49.8283 25.4979 49.8283Z" fill="#34A853"/>
<path d="M10.9939 29.8416C10.4557 28.2914 10.1442 26.6303 10.1442 24.9141C10.1442 23.1977 10.4557 21.5368 10.9656 19.9866L10.9514 19.6565L2.98285 13.6092L2.72213 13.7303C0.994185 17.1076 0.00268555 20.9002 0.00268555 24.9141C0.00268555 28.9281 0.994185 32.7204 2.72213 36.0977L10.9939 29.8416Z" fill="#FBBC05"/>
<path d="M25.4979 9.6334C30.2853 9.6334 33.5146 11.6542 35.3561 13.3429L42.5514 6.47767C38.1323 2.46374 32.3816 0 25.4979 0C15.5263 0 6.91446 5.59179 2.72192 13.7303L10.9654 19.9866C13.0336 13.9796 18.7558 9.6334 25.4979 9.6334Z" fill="#EB4335"/>
</g>
<defs>
<clipPath id="clip0_7_8">
<rect width="50" height="50" fill="white"/>
</clipPath>
</defs>
</svg>
